<?xml version="1.0" standalone="no"?><!DOCTYPE svg PUBLIC "-//W3C//DTD SVG 1.1//EN" "http://www.w3.org/Graphics/SVG/1.1/DTD/svg11.dtd"><svg t="1687750451159" class="icon" viewBox="0 0 1024 1024" version="1.1" xmlns="http://www.w3.org/2000/svg" p-id="34653" width="1024" height="1024" xmlns:xlink="http://www.w3.org/1999/xlink"><path d="M0 0h1024v1024H0z" fill="none" p-id="34654"></path><path d="M288 96a192 192 0 1 0 0 384H448a32 32 0 0 0 32-32v-160a192 192 0 0 0-192-192zM448 544h-160a192 192 0 1 0 192 192V576a32 32 0 0 0-32-32zM736 96a192 192 0 0 0-192 192V448a32 32 0 0 0 32 32h160a192 192 0 0 0 0-384z" fill="#11A6FA" p-id="34655" data-spm-anchor-id="a313x.7781069.0.i8" class="selected"></path><path d="M736 544H576a32 32 0 0 0-32 32v160a192 192 0 1 0 192-192z" fill="#F93E3E" p-id="34656" data-spm-anchor-id="a313x.7781069.0.i9" class="selected"></path></svg>